# xmcd
#
# Track frame offsets:
#	150
#	17673
#	37221
#	59469
#	82167
#	100215
#	126363
#	144861
#	165084
#	189432
#	209655
#	231453
#
# Disc length: 3410 seconds
#
# Revision: 0
# Processed by: cddbd v1.5.2PL0 Copyright (c) Steve Scherf et al.
# Submitted via: EZCDAudioConverter 3.1.0.1
#
DISCID=a90d500c
DTITLE=Jay Jesse Johnson - Set The Blues On Fire
DYEAR=2014
DGENRE=Blues Rock
TTITLE0=Hell Or High Water
TTITLE1=Ghosts In Texas
TTITLE2=Since My Baby's Gone
TTITLE3=Wheelhouse Boogie
TTITLE4=Set The Blues On Fire
TTITLE5=Midnight Dream
TTITLE6=Voodoo Woman
TTITLE7=Don't Mess With Baby
TTITLE8=If I Knew Then
TTITLE9=Ace In The Hole
TTITLE10=Grinding Blues
TTITLE11=Rio De Los Suenos (River Of Dreams)
EXTD=
EXTT0=
EXTT1=
EXTT2=
EXTT3=
EXTT4=
EXTT5=
EXTT6=
EXTT7=
EXTT8=
EXTT9=
EXTT10=
EXTT11=
PLAYORDER=
